<svg width="16" height="16" viewBox="0 0 16 16" fill="none" xmlns="http://www.w3.org/2000/svg">
<path d="M5.49988 10.4999L10.4999 5.49988M7.16654 2.99993L7.55238 2.55326C8.33388 1.77187 9.39379 1.33293 10.4989 1.33301C11.6041 1.33309 12.6639 1.77217 13.4453 2.55368C14.2267 3.33518 14.6656 4.39509 14.6656 5.50022C14.6655 6.60536 14.2264 7.6652 13.4449 8.4466L12.9999 8.83326M8.83313 12.9999L8.50229 13.4449C7.71167 14.2267 6.64462 14.6652 5.53271 14.6652C4.4208 14.6652 3.35375 14.2267 2.56313 13.4449C2.17342 13.0595 1.86404 12.6007 1.65289 12.095C1.44173 11.5893 1.33301 11.0467 1.33301 10.4986C1.33301 9.95059 1.44173 9.40799 1.65289 8.90226C1.86404 8.39653 2.17342 7.93771 2.56313 7.55238L2.99979 7.16654" stroke="#5747FF" stroke-width="1.5" stroke-linecap="round" stroke-linejoin="round"/>
</svg>
